<svg width="30" height="29" viewBox="0 0 30 29" fill="none" xmlns="http://www.w3.org/2000/svg">
<path d="M12.3235 8.2947C12.4404 8.04484 15.0457 4.24867 15.0866 4.1873C14.8835 3.9652 14.6819 3.74164 14.4875 3.52538C13.2309 2.11972 11.6777 2.02621 11.0114 2.05981C11.0523 2.39442 11.2145 2.64867 10.8623 3.5736C10.5102 4.49853 10.4897 4.41817 10.1157 4.86383C9.74161 5.30949 8.63696 5.87205 8.07294 5.98018C7.50892 6.0883 7.01358 6.04155 6.48024 5.88374C6.39403 6.27242 6.32243 6.97671 6.49047 7.80228C6.63075 8.49342 7.21814 9.38621 7.68864 9.98237C8.39294 10.8752 9.89211 12.801 10.237 13.1999C10.5 13.5038 10.9719 13.4921 11.2174 13.2715C11.4395 13.0713 11.4585 12.6899 11.2788 12.3729L8.52737 7.73799L12.1672 9.11881C12.1482 8.84703 12.1935 8.56648 12.3206 8.29616L12.3235 8.2947Z" fill="#2E9F9D"/>
<path d="M6.72123 4.83744C8.02315 5.25826 9.4215 4.54374 9.84233 3.24183C10.2631 1.93991 9.54863 0.541552 8.24671 0.120731C6.94479 -0.300091 5.54644 0.414429 5.12561 1.71635C4.70479 3.01826 5.41931 4.41662 6.72123 4.83744Z" fill="#2E9F9D"/>
<path d="M18.5178 9.21812C18.791 9.25319 23.2009 10.577 23.2725 10.5975C23.423 10.3359 23.5735 10.0773 23.7211 9.82598C24.6767 8.20114 24.2924 6.69173 24.0571 6.0678C23.7503 6.20808 23.5589 6.44041 22.5696 6.3878C21.5804 6.3352 21.6506 6.29137 21.1128 6.07073C20.5751 5.85009 19.7013 4.97045 19.4281 4.46488C19.1534 3.96077 19.0467 3.47566 19.0336 2.91895C18.6376 2.95547 17.945 3.10159 17.21 3.51365C16.5948 3.85849 15.9227 4.6899 15.499 5.31968C14.8633 6.26214 13.4854 8.27712 13.2107 8.72716C13.0018 9.07054 13.1567 9.51621 13.4416 9.68278C13.7002 9.83328 14.0685 9.73392 14.3169 9.46652L17.8924 5.43365L17.6864 9.32041C17.9391 9.21958 18.2197 9.17721 18.5163 9.21666L18.5178 9.21812Z" fill="#E5AE88"/>
<path d="M20.1035 2.8283C20.0991 4.19743 21.2053 5.31086 22.5744 5.31378C23.9435 5.3167 25.057 4.21205 25.0599 2.84291C25.0643 1.47378 23.9581 0.360357 22.589 0.357435C21.2199 0.353051 20.1065 1.45917 20.1035 2.8283Z" fill="#E5AE88"/>
<path d="M19.5672 15.4181C19.6169 15.6899 19.7133 20.2912 19.7148 20.3657C20.0099 20.4285 20.3022 20.4914 20.5871 20.5556C22.4267 20.9648 23.7447 20.1363 24.2664 19.7198C24.0384 19.4714 23.7579 19.3604 23.5051 18.4033C23.2508 17.4462 23.3151 17.4988 23.359 16.9202C23.4028 16.3416 23.9727 15.2398 24.3687 14.8234C24.7646 14.407 25.1942 14.1571 25.7188 13.973C25.5624 13.6077 25.2103 12.9925 24.5922 12.4212C24.075 11.9419 23.077 11.5591 22.3478 11.3487C21.2549 11.0346 18.9155 10.3419 18.4012 10.2192C18.011 10.1257 17.634 10.4106 17.5624 10.7321C17.4982 11.0243 17.7056 11.3443 18.0373 11.4977L22.9732 13.6603L19.2107 14.6598C19.3845 14.8687 19.5117 15.1244 19.5657 15.4181H19.5672Z" fill="#D78382"/>
<path d="M26.1352 14.9624C24.8318 15.3789 24.1129 16.7743 24.5293 18.0777C24.9458 19.3811 26.3412 20.1 27.6446 19.6835C28.948 19.2671 29.6669 17.8717 29.2504 16.5683C28.834 15.2649 27.4386 14.546 26.1352 14.9624Z" fill="#D78382"/>
<path d="M14.004 18.3069C13.7629 18.4398 9.42463 19.9829 9.35449 20.0077C9.3881 20.3072 9.42025 20.6053 9.44947 20.8946C9.64089 22.7693 10.8434 23.7586 11.4016 24.1224C11.5653 23.8272 11.5828 23.5277 12.4113 22.9841C13.2398 22.442 13.2091 22.518 13.7731 22.3777C14.3371 22.2375 15.5616 22.4303 16.0818 22.6744C16.602 22.9184 16.9746 23.2472 17.3136 23.6884C17.6117 23.424 18.0836 22.8965 18.4314 22.1293C18.7236 21.4864 18.7718 20.4198 18.7412 19.6599C18.6944 18.5246 18.614 16.0844 18.5687 15.5584C18.5337 15.158 18.145 14.8906 17.8177 14.9242C17.5196 14.9549 17.2814 15.253 17.2405 15.6168L16.7452 20.9838L14.6104 17.7282C14.4672 17.9591 14.2641 18.1593 14.0025 18.304L14.004 18.3069Z" fill="#89C3D4"/>
<path d="M16.5067 24.3972C15.7001 23.2911 14.1498 23.0485 13.0437 23.8551C11.9376 24.6617 11.695 26.212 12.5016 27.3181C13.3082 28.4242 14.8585 28.6668 15.9646 27.8602C17.0707 27.0536 17.3133 25.5033 16.5067 24.3972Z" fill="#89C3D4"/>
<path d="M9.52273 13.9189C9.32255 13.729 6.54045 10.0614 6.49515 10.0015C6.22045 10.1242 5.94574 10.2455 5.67835 10.3609C3.9483 11.1105 3.36967 12.5556 3.19141 13.1985C3.52163 13.2658 3.81387 13.1912 4.581 13.8166C5.34958 14.442 5.26629 14.4362 5.57022 14.9315C5.87415 15.4269 6.06118 16.6528 5.9852 17.2212C5.90921 17.7911 5.70903 18.2455 5.39195 18.7028C5.73387 18.9074 6.37826 19.1967 7.21552 19.2975C7.91542 19.3808 8.94848 19.1061 9.663 18.846C10.7311 18.4588 13.0325 17.6435 13.5191 17.4418C13.8902 17.2884 14.0276 16.8354 13.8961 16.5344C13.7762 16.2597 13.4197 16.1238 13.0617 16.194L7.79707 17.3439L10.2548 14.3251C9.99177 14.2579 9.73899 14.1264 9.52273 13.9204V13.9189Z" fill="#497BB9"/>
<path d="M4.47561 18.1459C5.2851 17.0427 5.04839 15.4909 3.9452 14.6814C2.842 13.8719 1.29022 14.1086 0.48072 15.2118C-0.328778 16.315 -0.0920651 17.8668 1.01113 18.6763C2.11433 19.4858 3.66611 19.2491 4.47561 18.1459Z" fill="#497BB9"/>
</svg>
