<svg viewBox="0 0 280 170" width="100%" height="100%" xmlns="http://www.w3.org/2000/svg" fill="none">
  <!-- prompt bar -->
  <rect x="40" y="14" width="200" height="26" rx="13" fill="#f6f5fb" stroke="#e6e4f0"></rect>
  <path d="M55 22 L56.6 26.4 L61 28 L56.6 29.6 L55 34 L53.4 29.6 L49 28 L53.4 26.4 Z" fill="#a855f7"></path>
  <mask id="typeA"><rect id="typeAr" x="64" y="18" width="0" height="20" fill="#fff"><animate attributeName="width" values="0;0;10.4;16.8;19.8;26.8;29.8;39.7;46.1;49.2;56.2;62.8;65.7;68.7;75.7;79.2;82.7;86.3;86.3" keyTimes="0;0.05;0.07;0.083;0.097;0.11;0.135;0.172;0.186;0.215;0.27;0.284;0.297;0.31;0.323;0.37;0.41;0.452;1" dur="3s" repeatCount="indefinite" calcMode="discrete"></animate></rect></mask>
  <text id="ptext" x="66" y="31.5" font-family="ui-sans-serif,system-ui,-apple-system,sans-serif" font-size="11" font-weight="500" fill="#3a3550" mask="url(#typeA)">Help me build...</text>
  <rect id="pcaret" x="66" y="23" width="1.6" height="11" rx="0.8" fill="#a855f7"><animate attributeName="x" values="66;66;74.4;80.8;83.8;90.8;93.8;103.7;110.1;113.2;120.2;126.8;129.7;132.7;139.7;143.2;146.7;150.3;150.3" keyTimes="0;0.05;0.07;0.083;0.097;0.11;0.135;0.172;0.186;0.215;0.27;0.284;0.297;0.31;0.323;0.37;0.41;0.452;1" dur="3s" repeatCount="indefinite" calcMode="discrete"></animate><animate attributeName="opacity" values="1;1;0;1" keyTimes="0;0.4;0.7;1" dur="0.9s" repeatCount="indefinite"></animate></rect>
  <g id="uiroot"><path d="M50 54 H230 A10 10 0 0 1 240 64 V144 A10 10 0 0 1 230 154 H50 A10 10 0 0 1 40 144 V64 A10 10 0 0 1 50 54 Z" fill="none" fill-opacity="0" stroke="#a99fc9" stroke-width="1.3" stroke-linejoin="round" pathLength="1" stroke-dasharray="1" stroke-dashoffset="1"><animate attributeName="stroke-dashoffset" values="1;1;0;0" keyTimes="0;0.5;0.63;1" dur="3s" repeatCount="indefinite" calcMode="spline" keySplines="0 0 1 1;0.4 0 0.2 1;0 0 1 1"></animate></path><path d="M54 64 H226 A4 4 0 0 1 230 68 V74 A4 4 0 0 1 226 78 H54 A4 4 0 0 1 50 74 V68 A4 4 0 0 1 54 64 Z" fill="#a855f7" fill-opacity="0" stroke="#a99fc9" stroke-width="1.3" stroke-linejoin="round" pathLength="1" stroke-dasharray="1" stroke-dashoffset="1"><animate attributeName="stroke-dashoffset" values="1;1;0;0" keyTimes="0;0.57;0.66;1" dur="3s" repeatCount="indefinite" calcMode="spline" keySplines="0 0 1 1;0.4 0 0.2 1;0 0 1 1"></animate><animate attributeName="fill-opacity" values="0;0;1;1" keyTimes="0;0.66;0.74;1" dur="3s" repeatCount="indefinite" calcMode="spline" keySplines="0 0 1 1;0.4 0 0.2 1;0 0 1 1"></animate></path><path d="M54 84 H92 A4 4 0 0 1 96 88 V142 A4 4 0 0 1 92 146 H54 A4 4 0 0 1 50 142 V88 A4 4 0 0 1 54 84 Z" fill="#efe6fd" fill-opacity="0" stroke="#a99fc9" stroke-width="1.3" stroke-linejoin="round" pathLength="1" stroke-dasharray="1" stroke-dashoffset="1"><animate attributeName="stroke-dashoffset" values="1;1;0;0" keyTimes="0;0.63;0.72;1" dur="3s" repeatCount="indefinite" calcMode="spline" keySplines="0 0 1 1;0.4 0 0.2 1;0 0 1 1"></animate><animate attributeName="fill-opacity" values="0;0;1;1" keyTimes="0;0.72;0.80;1" dur="3s" repeatCount="indefinite" calcMode="spline" keySplines="0 0 1 1;0.4 0 0.2 1;0 0 1 1"></animate></path><path d="M108 84 H160 A4 4 0 0 1 164 88 V108 A4 4 0 0 1 160 112 H108 A4 4 0 0 1 104 108 V88 A4 4 0 0 1 108 84 Z" fill="#f3f2f8" fill-opacity="0" stroke="#a99fc9" stroke-width="1.3" stroke-linejoin="round" pathLength="1" stroke-dasharray="1" stroke-dashoffset="1"><animate attributeName="stroke-dashoffset" values="1;1;0;0" keyTimes="0;0.69;0.77;1" dur="3s" repeatCount="indefinite" calcMode="spline" keySplines="0 0 1 1;0.4 0 0.2 1;0 0 1 1"></animate><animate attributeName="fill-opacity" values="0;0;1;1" keyTimes="0;0.77;0.85;1" dur="3s" repeatCount="indefinite" calcMode="spline" keySplines="0 0 1 1;0.4 0 0.2 1;0 0 1 1"></animate></path><path d="M174 84 H226 A4 4 0 0 1 230 88 V108 A4 4 0 0 1 226 112 H174 A4 4 0 0 1 170 108 V88 A4 4 0 0 1 174 84 Z" fill="#f3f2f8" fill-opacity="0" stroke="#a99fc9" stroke-width="1.3" stroke-linejoin="round" pathLength="1" stroke-dasharray="1" stroke-dashoffset="1"><animate attributeName="stroke-dashoffset" values="1;1;0;0" keyTimes="0;0.74;0.82;1" dur="3s" repeatCount="indefinite" calcMode="spline" keySplines="0 0 1 1;0.4 0 0.2 1;0 0 1 1"></animate><animate attributeName="fill-opacity" values="0;0;1;1" keyTimes="0;0.82;0.90;1" dur="3s" repeatCount="indefinite" calcMode="spline" keySplines="0 0 1 1;0.4 0 0.2 1;0 0 1 1"></animate></path><path d="M108 118 H226 A4 4 0 0 1 230 122 V142 A4 4 0 0 1 226 146 H108 A4 4 0 0 1 104 142 V122 A4 4 0 0 1 108 118 Z" fill="#f3f2f8" fill-opacity="0" stroke="#a99fc9" stroke-width="1.3" stroke-linejoin="round" pathLength="1" stroke-dasharray="1" stroke-dashoffset="1"><animate attributeName="stroke-dashoffset" values="1;1;0;0" keyTimes="0;0.79;0.88;1" dur="3s" repeatCount="indefinite" calcMode="spline" keySplines="0 0 1 1;0.4 0 0.2 1;0 0 1 1"></animate><animate attributeName="fill-opacity" values="0;0;1;1" keyTimes="0;0.88;0.96;1" dur="3s" repeatCount="indefinite" calcMode="spline" keySplines="0 0 1 1;0.4 0 0.2 1;0 0 1 1"></animate></path></g>
</svg>
